<svg width="112" height="44" viewBox="0 0 112 44" fill="none" xmlns="http://www.w3.org/2000/svg">
    <path d="M26.5732 12.6011L21.1467 15.7341L15.7202 12.6011L21.1467 9.46725L26.5732 12.6011Z"
          fill="url(#paint0_linear_9_6372)"/>
    <path d="M26.5732 12.6011H15.7202L21.1467 9.46725L26.5732 12.6011Z" fill="url(#paint1_linear_9_6372)"/>
    <path d="M21.1469 9.46726L15.7204 12.6012L10.293 9.46726L15.7204 6.33432L21.1469 9.46726Z"
          fill="url(#paint2_linear_9_6372)"/>
    <path d="M37.4286 12.6002L32.0012 15.7341L26.5737 12.6011L32.0012 9.46725L37.4286 12.6002Z"
          fill="url(#paint3_linear_9_6372)"/>
    <path d="M26.5746 6.33432L21.1472 9.46727L15.7207 6.33432L21.1472 3.20044L26.5746 6.33432Z" fill="#222452"/>
    <path d="M26.5744 6.33432L21.147 3.20044V9.46726L26.5735 12.6012L32.0009 9.46726L26.5744 6.33432Z"
          fill="url(#paint4_linear_9_6372)"/>
    <path d="M21.1472 9.46727L15.7207 6.33432L21.1472 3.20044V9.46727Z" fill="url(#paint5_linear_9_6372)"/>
    <path d="M26.5737 12.6011L21.1472 15.7341L15.7207 18.867L21.1472 22L26.5746 18.867L32.0011 15.7341L26.5737 12.6011Z"
          fill="url(#paint6_linear_9_6372)"/>
    <path d="M21.1469 15.7341L15.7204 18.867L10.2939 15.7341L15.7204 12.6011L21.1469 15.7341Z"
          fill="url(#paint7_linear_9_6372)"/>
    <path d="M15.7206 12.6011L10.2941 15.7341H10.2932L4.8667 12.6002L10.2932 9.46725L15.7206 12.6011Z"
          fill="url(#paint8_linear_9_6372)"/>
    <path d="M21.1472 34.5336V40.7995L15.7207 37.6666V31.4007L21.1472 34.5336Z" fill="url(#paint9_linear_9_6372)"/>
    <path d="M15.7207 18.867V25.1339V31.4007L21.1472 34.5336V28.2668V22L15.7207 18.867Z"
          fill="url(#paint10_linear_9_6372)"/>
    <path d="M15.7204 25.1339V31.4007L10.293 28.2668V22L15.7204 25.1339Z" fill="url(#paint11_linear_9_6372)"/>
    <path d="M15.7204 18.867V25.1339L10.293 22V15.7341H10.2939L15.7204 18.867Z" fill="url(#paint12_linear_9_6372)"/>
    <path d="M10.2932 28.2668L4.8667 25.1339V31.3998L10.2932 34.5327L15.7206 37.6666V31.4007L10.2932 28.2668Z"
          fill="url(#paint13_linear_9_6372)"/>
    <path d="M10.2932 28.2668L4.8667 25.1339V31.3998L15.7206 31.4007L10.2932 28.2668Z"
          fill="url(#paint14_linear_9_6372)"/>
    <path d="M10.2932 15.7341V22L4.8667 18.867V12.6002L10.2932 15.7341Z" fill="url(#paint15_linear_9_6372)"/>
    <path d="M4.8667 12.6002V18.867V25.1339L10.2932 28.2668V22L4.8667 12.6002Z" fill="url(#paint16_linear_9_6372)"/>
    <path d="M26.5744 18.867V25.1329L21.147 28.2668V22L26.5744 18.867Z" fill="url(#paint17_linear_9_6372)"/>
    <path d="M32.0007 15.7341V22.0009L26.5742 25.1329V18.867L32.0007 15.7341Z" fill="url(#paint18_linear_9_6372)"/>
    <path d="M37.4284 12.6002V18.867L32.001 22.0009V15.7341L37.4284 12.6002Z" fill="url(#paint19_linear_9_6372)"/>
    <path d="M32.0007 22.0009V28.2678L26.5742 31.3998V25.133L32.0007 22.0009Z" fill="url(#paint20_linear_9_6372)"/>
    <path d="M26.5744 25.133V31.3998L21.147 34.5337V28.2668L26.5744 25.133Z" fill="url(#paint21_linear_9_6372)"/>
    <path d="M32.001 22.0009V28.2678V34.5336L37.4284 31.3998V25.1339V18.867L32.001 22.0009Z"
          fill="url(#paint22_linear_9_6372)"/>
    <path d="M37.4284 31.3998L32.001 34.5337V28.2678L37.4284 31.3998Z" fill="url(#paint23_linear_9_6372)"/>
    <path d="M26.5744 31.3998L21.147 34.5337V40.7995L26.5744 37.6666V37.6657L32.0009 34.5337V28.2678L26.5744 31.3998Z"
          fill="url(#paint24_linear_9_6372)"/>
    <path d="M32.0007 28.2678V34.5337L26.5742 37.6657L32.0007 28.2678Z" fill="url(#paint25_linear_9_6372)"/>
    <path d="M50.4906 19.8914H46.2922L45.6338 21.4441H43.7085L47.5716 12.7491H49.2112L53.0867 21.4441H51.149L50.4906 19.8914ZM49.8571 18.4133L48.3914 14.9601L46.9257 18.4133H49.8571Z"
          fill="black"/>
    <path d="M61.9181 18.9722C61.9181 20.4255 60.9119 21.4441 58.7506 21.4441H55.3223V12.7491H58.5643C60.3654 12.7491 61.2722 13.7676 61.2722 14.9352C61.2722 15.8544 60.676 16.3761 60.1169 16.6246C61.0362 16.873 61.9181 17.668 61.9181 18.9722ZM57.1358 14.339V16.1401H58.3904C59.1605 16.1401 59.4711 15.755 59.4711 15.1961C59.4711 14.6496 59.1108 14.339 58.3904 14.339L57.1358 14.339ZM60.1045 18.6866C60.1045 18.0033 59.6449 17.5313 58.5767 17.5313H57.1358V19.8542H58.6512C59.6449 19.8542 60.1045 19.3822 60.1045 18.6866Z"
          fill="black"/>
    <path d="M70.1406 14.4011L68.7992 15.1961C68.3271 14.5378 67.8799 14.2024 67.2092 14.2024C66.5757 14.2024 66.1285 14.575 66.1285 15.0967C66.1285 15.5687 66.4142 15.8172 67.0974 16.0656L67.6936 16.2768C69.6189 16.9599 70.3767 17.817 70.3767 19.0343C70.3767 20.7609 68.7122 21.6304 67.2464 21.6304C65.6689 21.6304 64.4516 20.6988 64.0293 19.4815L65.4205 18.7486C65.7311 19.3822 66.2527 19.9908 67.2464 19.9908C67.942 19.9908 68.4886 19.6803 68.4886 18.9971C68.4886 18.4133 68.116 18.14 67.1719 17.7798L66.6377 17.5935C65.3583 17.1339 64.3274 16.5128 64.3274 15.0222C64.3274 13.6186 65.6316 12.6 67.2092 12.6C68.7245 12.6 69.6811 13.5565 70.1406 14.4011Z"
          fill="black"/>
    <path d="M81.5679 17.0966C81.5679 19.7424 79.4811 21.5684 77.0588 21.5684C74.6366 21.5684 72.5498 19.7424 72.5498 17.0966C72.5498 14.4509 74.6366 12.6249 77.0588 12.6249C79.4811 12.6249 81.5679 14.4508 81.5679 17.0966ZM79.6798 17.0966C79.6798 15.4818 78.5246 14.3266 77.0588 14.3266C75.5931 14.3266 74.4379 15.4818 74.4379 17.0966C74.4379 18.7114 75.5931 19.8666 77.0588 19.8666C78.5246 19.8666 79.6798 18.7114 79.6798 17.0966Z"
          fill="black"/>
    <path d="M89.3432 19.7796V21.4441H84.1138V12.7491H85.9272V19.7796H89.3432Z" fill="black"/>
    <path d="M98.2987 12.7491V18.2891C98.2987 20.4007 96.7708 21.6304 94.9449 21.6304C93.1189 21.6304 91.5786 20.4007 91.5786 18.2891V12.7491H93.3922V18.3015C93.3922 19.5685 94.2245 19.9287 94.9449 19.9287C95.653 19.9287 96.4851 19.5685 96.4851 18.3015V12.7491H98.2987Z"
          fill="black"/>
    <path d="M106.931 14.4136H104.77V21.4441H102.956V14.4136H100.783V12.7491H106.931V14.4136Z" fill="black"/>
    <path d="M47.9873 25.8524L47.647 26.0225C47.3635 25.3515 46.8154 24.8601 45.9932 24.8601C45.1616 24.8601 44.5473 25.3515 44.5473 26.0602C44.5473 26.665 44.9631 27.1092 45.7948 27.4306L46.2862 27.6195C47.3257 28.0259 48.1574 28.4512 48.1574 29.5569C48.1574 30.6058 47.1745 31.3241 46.0405 31.3241C44.982 31.3241 44.0559 30.6626 43.8291 29.7081L44.2166 29.5474C44.4434 30.3696 45.1522 30.9083 46.0405 30.9083C46.9288 30.9083 47.7132 30.3696 47.7132 29.5569C47.7132 28.6685 47.0328 28.3378 46.22 28.0259L45.6814 27.8181C44.6513 27.4117 44.1032 26.8541 44.1032 26.0602C44.1032 25.1341 44.897 24.4537 45.9932 24.4537C46.995 24.4537 47.7416 25.1058 47.9873 25.8524Z"
          fill="black"/>
    <path d="M55.585 28.1488V31.1824H55.1408V28.1488L52.7026 24.5671H53.2224L55.3582 27.7236L57.5035 24.5671H58.0232L55.585 28.1488Z"
          fill="black"/>
    <path d="M66.623 25.8524L66.2828 26.0225C65.9993 25.3515 65.4512 24.8601 64.629 24.8601C63.7973 24.8601 63.1831 25.3515 63.1831 26.0602C63.1831 26.665 63.5989 27.1092 64.4305 27.4306L64.922 27.6195C65.9615 28.0259 66.7931 28.4512 66.7931 29.5569C66.7931 30.6058 65.8102 31.3241 64.6762 31.3241C63.6178 31.3241 62.6917 30.6626 62.4648 29.7081L62.8523 29.5474C63.0791 30.3696 63.7879 30.9083 64.6762 30.9083C65.5646 30.9083 66.3489 30.3696 66.3489 29.5569C66.3489 28.6685 65.6685 28.3378 64.8557 28.0259L64.3171 27.8181C63.287 27.4117 62.7389 26.8541 62.7389 26.0602C62.7389 25.1341 63.5328 24.4537 64.629 24.4537C65.6307 24.4537 66.3772 25.1058 66.623 25.8524Z"
          fill="black"/>
    <path d="M75.8085 24.9924H73.8617V31.1824H73.4175V24.9924H71.4707V24.5671H75.8085V24.9924Z" fill="black"/>
    <path d="M84.795 30.7571V31.1824H81.0054V24.5671H84.7099V24.9924H81.4496V27.6479H84.0295V28.0732H81.4496V30.7571H84.795Z"
          fill="black"/>
    <path d="M96.9105 31.1824H96.4569V25.5121L93.6312 31.1824H93.3193L90.4936 25.5121V31.1824H90.04V24.5671H90.4842L93.4705 30.5681L96.4663 24.5671H96.9105V31.1824Z"
          fill="black"/>
    <path d="M106.218 25.8524L105.878 26.0225C105.594 25.3515 105.046 24.8601 104.224 24.8601C103.393 24.8601 102.778 25.3515 102.778 26.0602C102.778 26.665 103.194 27.1092 104.026 27.4306L104.517 27.6195C105.557 28.0259 106.388 28.4512 106.388 29.5569C106.388 30.6058 105.405 31.3241 104.271 31.3241C103.213 31.3241 102.287 30.6626 102.06 29.7081L102.448 29.5474C102.674 30.3696 103.383 30.9083 104.271 30.9083C105.16 30.9083 105.944 30.3696 105.944 29.5569C105.944 28.6685 105.264 28.3378 104.451 28.0259L103.912 27.8181C102.882 27.4117 102.334 26.8541 102.334 26.0602C102.334 25.1341 103.128 24.4537 104.224 24.4537C105.226 24.4537 105.972 25.1058 106.218 25.8524Z"
          fill="black"/>
    <defs>
        <linearGradient id="paint0_linear_9_6372" x1="15.7202" y1="12.6007" x2="26.5732" y2="12.6007"
                        gradientUnits="userSpaceOnUse">
            <stop stop-color="#ABC7FC"/>
            <stop offset="1" stop-color="#78B5DF"/>
        </linearGradient>
        <linearGradient id="paint1_linear_9_6372" x1="-0.000468805" y1="11.0342" x2="0.103048" y2="11.0342"
                        gradientUnits="userSpaceOnUse">
            <stop stop-color="#ABC7FC"/>
            <stop offset="1" stop-color="#78B5DF"/>
        </linearGradient>
        <linearGradient id="paint2_linear_9_6372" x1="15.7199" y1="6.33432" x2="15.7199" y2="12.6012"
                        gradientUnits="userSpaceOnUse">
            <stop stop-color="#AFD5ED"/>
            <stop offset="1" stop-color="#CDE5D9"/>
        </linearGradient>
        <linearGradient id="paint3_linear_9_6372" x1="26.5737" y1="12.6007" x2="37.4286" y2="12.6007"
                        gradientUnits="userSpaceOnUse">
            <stop stop-color="#C3E0F1"/>
            <stop offset="1" stop-color="#6972F4"/>
        </linearGradient>
        <linearGradient id="paint4_linear_9_6372" x1="26.5739" y1="3.20044" x2="26.5739" y2="12.6012"
                        gradientUnits="userSpaceOnUse">
            <stop stop-color="#C3E0F1"/>
            <stop offset="0.14159" stop-color="#AFC7F1"/>
            <stop offset="0.39489" stop-color="#90A2F2"/>
            <stop offset="0.63049" stop-color="#7A87F3"/>
            <stop offset="0.83939" stop-color="#6D77F3"/>
            <stop offset="1" stop-color="#6972F4"/>
        </linearGradient>
        <linearGradient id="paint5_linear_9_6372" x1="15.7207" y1="6.33385" x2="21.1472" y2="6.33385"
                        gradientUnits="userSpaceOnUse">
            <stop stop-color="#C3E0F1"/>
            <stop offset="1" stop-color="#6972F4"/>
        </linearGradient>
        <linearGradient id="paint6_linear_9_6372" x1="23.8609" y1="12.6011" x2="23.8609" y2="22"
                        gradientUnits="userSpaceOnUse">
            <stop stop-color="#F4D76E"/>
            <stop offset="1" stop-color="#8D96FB"/>
        </linearGradient>
        <linearGradient id="paint7_linear_9_6372" x1="10.2939" y1="15.7341" x2="21.1469" y2="15.7341"
                        gradientUnits="userSpaceOnUse">
            <stop stop-color="#ABC7FC"/>
            <stop offset="1" stop-color="#78B5CD"/>
        </linearGradient>
        <linearGradient id="paint8_linear_9_6372" x1="4.8667" y1="12.6007" x2="15.7206" y2="12.6007"
                        gradientUnits="userSpaceOnUse">
            <stop stop-color="#CDE5E2"/>
            <stop offset="1" stop-color="#AFD5DA"/>
        </linearGradient>
        <linearGradient id="paint9_linear_9_6372" x1="15.7207" y1="31.4007" x2="21.1472" y2="40.7995"
                        gradientUnits="userSpaceOnUse">
            <stop stop-color="#4A80D8"/>
            <stop offset="0.99991" stop-color="#FDFBBE"/>
        </linearGradient>
        <linearGradient id="paint10_linear_9_6372" x1="18.4339" y1="18.867" x2="18.4339" y2="34.5336"
                        gradientUnits="userSpaceOnUse">
            <stop offset="9e-05" stop-color="#FDFBBE"/>
            <stop offset="1" stop-color="#4A80D8"/>
        </linearGradient>
        <linearGradient id="paint11_linear_9_6372" x1="13.0067" y1="22" x2="13.0067" y2="31.4007"
                        gradientUnits="userSpaceOnUse">
            <stop stop-color="#503FBC"/>
            <stop offset="0.04536" stop-color="#5342BD"/>
            <stop offset="0.41767" stop-color="#6A5DCB"/>
            <stop offset="0.74792" stop-color="#786ED3"/>
            <stop offset="1" stop-color="#7E74D6"/>
        </linearGradient>
        <linearGradient id="paint12_linear_9_6372" x1="13.0067" y1="15.7341" x2="13.0067" y2="25.1339"
                        gradientUnits="userSpaceOnUse">
            <stop stop-color="#503FBC"/>
            <stop offset="0.23146" stop-color="#5D4EC3"/>
            <stop offset="0.71634" stop-color="#7569D0"/>
            <stop offset="1" stop-color="#7E74D6"/>
        </linearGradient>
        <linearGradient id="paint13_linear_9_6372" x1="10.2937" y1="25.1339" x2="10.2937" y2="37.6666"
                        gradientUnits="userSpaceOnUse">
            <stop stop-color="#F4D76E"/>
            <stop offset="1" stop-color="#5F54CC"/>
        </linearGradient>
        <linearGradient id="paint14_linear_9_6372" x1="4.8667" y1="28.2673" x2="15.7206" y2="28.2673"
                        gradientUnits="userSpaceOnUse">
            <stop stop-color="#F4D76E"/>
            <stop offset="1" stop-color="#5F54CC"/>
        </linearGradient>
        <linearGradient id="paint15_linear_9_6372" x1="4.86651" y1="18.8667" x2="10.293" y2="15.7337"
                        gradientUnits="userSpaceOnUse">
            <stop stop-color="#4846DE"/>
            <stop offset="0.43584" stop-color="#806DEB"/>
            <stop offset="0.80938" stop-color="#AA8BF6"/>
            <stop offset="1" stop-color="#BB97FA"/>
        </linearGradient>
        <linearGradient id="paint16_linear_9_6372" x1="7.57996" y1="12.6002" x2="7.57996" y2="28.2668"
                        gradientUnits="userSpaceOnUse">
            <stop stop-color="#4846DE"/>
            <stop offset="0.19172" stop-color="#5851E1"/>
            <stop offset="0.56838" stop-color="#836FEC"/>
            <stop offset="0.99876" stop-color="#BB97FA"/>
        </linearGradient>
        <linearGradient id="paint17_linear_9_6372" x1="23.8607" y1="18.867" x2="23.8607" y2="28.2668"
                        gradientUnits="userSpaceOnUse">
            <stop stop-color="#5079D9"/>
            <stop offset="1" stop-color="#C7D6F3"/>
        </linearGradient>
        <linearGradient id="paint18_linear_9_6372" x1="29.2875" y1="15.7341" x2="29.2875" y2="25.1329"
                        gradientUnits="userSpaceOnUse">
            <stop stop-color="#5079D9"/>
            <stop offset="1" stop-color="#C7D6F3"/>
        </linearGradient>
        <linearGradient id="paint19_linear_9_6372" x1="34.7147" y1="12.6002" x2="34.7147" y2="22.0009"
                        gradientUnits="userSpaceOnUse">
            <stop offset="0.00262" stop-color="#78B5DF"/>
            <stop offset="1" stop-color="#D6D2EF"/>
        </linearGradient>
        <linearGradient id="paint20_linear_9_6372" x1="29.2875" y1="22.0009" x2="29.2875" y2="31.3998"
                        gradientUnits="userSpaceOnUse">
            <stop offset="0.00124" stop-color="#C7D6F3"/>
            <stop offset="0.33952" stop-color="#9F95D4"/>
            <stop offset="0.64439" stop-color="#7F61BC"/>
            <stop offset="0.87329" stop-color="#6C41AD"/>
            <stop offset="1" stop-color="#6536A8"/>
        </linearGradient>
        <linearGradient id="paint21_linear_9_6372" x1="23.8607" y1="25.133" x2="23.8607" y2="34.5337"
                        gradientUnits="userSpaceOnUse">
            <stop offset="0.00124" stop-color="#99B4E9"/>
            <stop offset="0.07637" stop-color="#93A6E2"/>
            <stop offset="0.37744" stop-color="#7F76C9"/>
            <stop offset="0.6426" stop-color="#7153B7"/>
            <stop offset="0.85914" stop-color="#683DAC"/>
            <stop offset="1" stop-color="#6536A8"/>
        </linearGradient>
        <linearGradient id="paint22_linear_9_6372" x1="34.7147" y1="18.867" x2="34.7147" y2="34.5336"
                        gradientUnits="userSpaceOnUse">
            <stop stop-color="#F4D76E"/>
            <stop offset="0.16616" stop-color="#EDBD66"/>
            <stop offset="0.55258" stop-color="#DE8855"/>
            <stop offset="0.84224" stop-color="#D5664A"/>
            <stop offset="1" stop-color="#D25A47"/>
        </linearGradient>
        <linearGradient id="paint23_linear_9_6372" x1="31.0079" y1="33.5406" x2="35.2885" y2="29.2599"
                        gradientUnits="userSpaceOnUse">
            <stop stop-color="#F4D76E"/>
            <stop offset="0.22432" stop-color="#E8AB60"/>
            <stop offset="0.44856" stop-color="#DE8855"/>
            <stop offset="0.65865" stop-color="#D76E4D"/>
            <stop offset="0.84838" stop-color="#D35F48"/>
            <stop offset="1" stop-color="#D25A47"/>
        </linearGradient>
        <linearGradient id="paint24_linear_9_6372" x1="26.5739" y1="28.2678" x2="26.5739" y2="40.7995"
                        gradientUnits="userSpaceOnUse">
            <stop stop-color="#D25A2C"/>
            <stop offset="0.18085" stop-color="#D87141"/>
            <stop offset="0.56241" stop-color="#E8AE78"/>
            <stop offset="1" stop-color="#FDFBBE"/>
        </linearGradient>
        <linearGradient id="paint25_linear_9_6372" x1="27.9311" y1="30.6174" x2="30.6443" y2="35.3168"
                        gradientUnits="userSpaceOnUse">
            <stop stop-color="#D25A2C"/>
            <stop offset="1" stop-color="#FDFBBE"/>
        </linearGradient>
    </defs>
</svg>
